<?xml version="1.0" encoding="utf-8"?>
<!-- Generator: Adobe Illustrator 21.0.2, SVG Export Plug-In . SVG Version: 6.00 Build 0)  -->
<svg version="1.1" id="Layer_1" xmlns="http://www.w3.org/2000/svg" xmlns:xlink="http://www.w3.org/1999/xlink" x="0px" y="0px"
	 viewBox="0 0 200 30" style="enable-background:new 0 0 200 30;" xml:space="preserve">
<style type="text/css">
	.st0{fill:#282828;}
	.st1{fill:#E67E22;}
	.st2{fill:#FFFFFF;}
	.st3{fill:#F39C12;}
	.st4{fill:url(#SVGID_1_);}
	.st5{fill:#DDDDDD;}
	.st6{fill:#0054A4;}
	.st7{fill:#3473DB;}
	.st8{opacity:0.1;}
	.st9{fill:#34495E;}
	.st10{fill:#E74C3C;}
	.st11{fill:#F1C40F;}
</style>
<g>
	<path class="st0" d="M148.3,27c0,1.7-1.3,3-3,3h-39c-1.7,0-3-1.3-3-3V3c0-1.7,1.3-3,3-3h39c1.7,0,3,1.3,3,3V27z"/>
	<path class="st1" d="M145.5,30c1.7,0,2.8-1.3,2.8-2.9v-8.9c0,0-11.4,8.2-32.7,11.8H145.5z"/>
	<path class="st2" d="M108.3,9h-1.8v6.3h1.8c1,0,1.6-0.2,2.2-0.7c0.7-0.6,1.1-1.5,1.1-2.4C111.7,10.2,110.3,9,108.3,9z M109.8,13.7
		c-0.4,0.3-0.9,0.5-1.7,0.5h-0.3V10h0.3c0.8,0,1.3,0.1,1.7,0.5c0.4,0.4,0.7,1,0.7,1.6C110.4,12.7,110.2,13.3,109.8,13.7z"/>
	<rect x="112.3" y="9" class="st2" width="1.2" height="6.3"/>
	<path class="st2" d="M116.5,11.4c-0.7-0.3-1-0.5-1-0.8c0-0.4,0.4-0.7,0.9-0.7c0.4,0,0.7,0.2,1,0.5l0.6-0.8
		c-0.5-0.5-1.2-0.7-1.8-0.7c-1.1,0-2,0.8-2,1.8c0,0.9,0.4,1.3,1.5,1.7c0.5,0.2,0.7,0.3,0.8,0.4c0.2,0.2,0.4,0.4,0.4,0.7
		c0,0.5-0.4,0.9-1,0.9c-0.6,0-1.1-0.3-1.3-0.8l-0.8,0.8c0.6,0.8,1.2,1.2,2.2,1.2c1.3,0,2.2-0.8,2.2-2.1
		C118.3,12.3,117.9,11.9,116.5,11.4z"/>
	<path class="st2" d="M118.7,12.1c0,1.8,1.5,3.3,3.3,3.3c0.5,0,1-0.1,1.5-0.4v-1.4c-0.5,0.5-0.9,0.7-1.5,0.7c-1.2,0-2.1-0.9-2.1-2.2
		c0-1.2,0.9-2.2,2.1-2.2c0.6,0,1,0.2,1.5,0.7V9.2c-0.5-0.3-1-0.4-1.5-0.4C120.2,8.8,118.7,10.3,118.7,12.1z"/>
	<polygon class="st2" points="133.3,13.2 131.6,9 130.2,9 132.9,15.4 133.6,15.4 136.3,9 135,9 	"/>
	<polygon class="st2" points="136.8,15.2 140.3,15.2 140.3,14.2 138.1,14.2 138.1,12.5 140.2,12.5 140.2,11.4 138.1,11.4 138.1,10 
		140.3,10 140.3,9 136.8,9 	"/>
	<path class="st2" d="M145.3,10.8c0-1.2-0.8-1.9-2.2-1.9h-1.8v6.3h1.2v-2.5h0.2l1.7,2.5h1.5l-2-2.6
		C144.8,12.4,145.3,11.8,145.3,10.8z M142.8,11.8h-0.4V9.9h0.4c0.8,0,1.2,0.3,1.2,0.9C144,11.5,143.6,11.8,142.8,11.8z"/>
	<g>
		<circle class="st3" cx="127.3" cy="12.1" r="3.3"/>
		<circle class="st1" cx="127.3" cy="12.1" r="3.3"/>
	</g>
</g>
<g>
	<g>
		<g>
			<linearGradient id="SVGID_1_" gradientUnits="userSpaceOnUse" x1="22.5" y1="29.625" x2="22.5" y2="0.375">
				<stop  offset="0" style="stop-color:#E6E6E6"/>
				<stop  offset="1" style="stop-color:#FFFFFF"/>
			</linearGradient>
			<path class="st4" d="M3,29.6c-1.4,0-2.6-1.2-2.6-2.6V3c0-1.4,1.2-2.6,2.6-2.6h39c1.4,0,2.6,1.2,2.6,2.6v24c0,1.4-1.2,2.6-2.6,2.6
				H3z"/>
			<path class="st5" d="M42,0.8c1.2,0,2.2,1,2.2,2.2v24c0,1.2-1,2.2-2.2,2.2H3c-1.2,0-2.2-1-2.2-2.2V3c0-1.2,1-2.2,2.2-2.2H42 M42,0
				H3C1.3,0,0,1.3,0,3v24c0,1.7,1.3,3,3,3h39c1.7,0,3-1.3,3-3V3C45,1.3,43.7,0,42,0L42,0z"/>
		</g>
	</g>
	<g>
		<polyline class="st6" points="18.1,19.8 19.6,10.1 22.1,10.1 20.6,19.8 18.1,19.8 		"/>
		<path class="st6" d="M29.7,10.3c-0.5-0.2-1.3-0.4-2.2-0.4c-2.5,0-4.2,1.3-4.2,3.2c0,1.4,1.2,2.2,2.2,2.6c1,0.5,1.3,0.8,1.3,1.2
			c0,0.6-0.8,0.9-1.5,0.9c-1,0-1.5-0.1-2.4-0.5l-0.3-0.2l-0.3,2.2c0.6,0.3,1.7,0.5,2.8,0.5c2.6,0,4.3-1.3,4.4-3.3
			c0-1.1-0.7-1.9-2.1-2.6c-0.9-0.4-1.4-0.7-1.4-1.2c0-0.4,0.5-0.8,1.4-0.8c0.8,0,1.4,0.2,1.9,0.4l0.2,0.1L29.7,10.3"/>
		<path class="st6" d="M36.1,10.1h-1.9c-0.6,0-1,0.2-1.3,0.8l-3.7,8.9h2.6c0,0,0.4-1.2,0.5-1.5c0.3,0,2.8,0,3.2,0
			c0.1,0.3,0.3,1.5,0.3,1.5h2.3L36.1,10.1 M33,16.3c0.2-0.6,1-2.7,1-2.7c0,0,0.2-0.6,0.3-0.9l0.2,0.8c0,0,0.5,2.3,0.6,2.8
			C34.7,16.3,33.5,16.3,33,16.3z"/>
		<path class="st6" d="M16,10.1l-2.5,6.6l-0.3-1.3c-0.5-1.5-1.9-3.2-3.5-4.1l2.2,8.5l2.6,0l3.9-9.7H16"/>
		<path class="st3" d="M11.3,10.1h-4l0,0.2c3.1,0.8,5.2,2.7,6.1,5.1l-0.9-4.5C12.2,10.3,11.8,10.1,11.3,10.1"/>
	</g>
</g>
<g>
	<path class="st7" d="M200,27c0,1.7-1.3,3-3,3h-39c-1.7,0-3-1.3-3-3V3c0-1.7,1.3-3,3-3h39c1.7,0,3,1.3,3,3V27z"/>
	<g>
		<g>
			<path class="st2" d="M164.7,15.4c-0.1,0.2,0,0.4,0.2,0.4h1c0.2,0,0.3-0.2,0.3-0.4l-0.6-1.5c-0.1-0.2-0.2-0.2-0.3,0L164.7,15.4z"
				/>
		</g>
		<g>
			<path class="st2" d="M195.5,18.6c-0.1-0.2-0.3-0.5-0.4-0.7l-1.9-2.8c-0.1-0.2-0.1-0.5,0-0.7l1.8-2.6c0.1-0.2,0.3-0.5,0.4-0.7
				l0.8-1.2c0.1-0.2,0-0.3-0.2-0.3h-1.4c-0.2,0-0.6,0-0.8,0H192c-0.2,0-0.5,0-0.7,0c-0.2,0-0.4,0.1-0.5,0.3
				c-0.1,0.2-0.3,0.4-0.4,0.6l0,0c-0.1,0.2-0.3,0.2-0.4,0l0,0c-0.1-0.2-0.3-0.5-0.4-0.6c-0.1-0.2-0.3-0.3-0.5-0.3
				c-0.2,0-0.5,0-0.7,0h-0.8c-0.2,0-0.6,0-0.8,0h-0.2c-0.2,0-0.4,0-0.5,0c0,0-0.3,0-0.5,0h-1.3c-0.2,0-0.6,0-0.8,0h-3.3
				c-0.2,0-0.5,0-0.6,0c-0.1,0-0.3,0-0.6,0h-0.1c-0.2,0-0.5,0-0.6,0c-0.1,0-0.3,0-0.6,0h-1.2c-0.2,0-0.5,0-0.7,0
				c-0.2,0-0.4,0.1-0.5,0.3c-0.1,0.2-0.3,0.5-0.4,0.6l-0.5,0.8c-0.1,0.2-0.3,0.2-0.4,0l-0.5-0.8c-0.1-0.2-0.3-0.5-0.4-0.6
				s-0.3-0.3-0.5-0.3c-0.2,0-0.5,0-0.7,0h-1.6c-0.2,0-0.6,0-0.8,0h-0.5c-0.2,0-0.4,0.2-0.4,0.4v0.5c0,0.2,0,0.6,0,0.8v1.9
				c0,0.2-0.1,0.2-0.2,0l-1-2.5c-0.1-0.2-0.2-0.5-0.3-0.7c-0.1-0.2-0.3-0.4-0.5-0.4c-0.2,0-0.6,0-0.8,0h-1.4c-0.2,0-0.6,0-0.8,0
				c-0.2,0-0.5,0.2-0.5,0.4l0,0c-0.1,0.2-0.2,0.5-0.3,0.7l-3.1,7.4c-0.1,0.2-0.2,0.5-0.3,0.7l-0.4,0.9c-0.1,0.2,0,0.4,0.2,0.4h1
				c0.2,0,0.6,0,0.8,0h1.5c0.2,0,0.6,0,0.8,0h0c0.2,0,0.5-0.2,0.5-0.4c0.1-0.2,0.2-0.5,0.3-0.7s0.3-0.3,0.5-0.3h0.7
				c0.2,0,0.5,0.2,0.5,0.3c0.1,0.2,0.2,0.5,0.3,0.7c0.1,0.2,0.3,0.4,0.5,0.4h0c0.2,0,0.6,0,0.8,0h0.6c0.2,0,0.6,0,0.8,0h0.2
				c0.2,0,0.4,0,0.5,0s0.3,0,0.5,0h0.8c0.2,0,0.5,0,0.7,0c0.2,0,0.5,0,0.7,0h0.3c0.2,0,0.4-0.2,0.4-0.4v-0.4c0-0.2,0-0.5,0-0.7
				c0-0.2,0.1-0.2,0.1-0.1c0.1,0.1,0.3,0.2,0.5,0.2c0.2,0,0.3,0,0.3,0c0,0,0.2,0,0.3,0c0.2,0,0.4-0.1,0.4-0.2c0-0.1,0.1-0.1,0.1,0.1
				c0,0.2,0,0.5,0,0.7v0.4c0,0.2,0.2,0.4,0.4,0.4h0.5c0.2,0,0.6,0,0.8,0h1.1c0.2,0,0.5,0,0.6,0c0.1,0,0.3,0,0.6,0h0.1
				c0.2,0,0.5,0,0.6,0c0.1,0,0.3,0,0.6,0h3.2c0.2,0,0.6,0,0.8,0h1.4c0.2,0,0.4,0,0.4,0s0.2,0,0.4,0h0.4c0.2,0,0.6,0,0.8,0h0.5
				c0.2,0,0.5,0,0.7,0c0.2,0,0.4-0.1,0.5-0.3s0.3-0.4,0.4-0.6l0.1-0.2c0.1-0.2,0.3-0.2,0.4,0l0.1,0.2c0.1,0.2,0.3,0.5,0.4,0.6
				c0.1,0.1,0.3,0.3,0.5,0.3c0.2,0,0.5,0,0.7,0h1.8c0.2,0,0.6,0,0.8,0h1.4c0.2,0,0.3-0.1,0.2-0.3L195.5,18.6z M168,19
				c-0.2,0-0.5-0.2-0.5-0.4l-0.3-0.7c-0.1-0.2-0.3-0.4-0.5-0.4h-2.3c-0.2,0-0.5,0.2-0.5,0.4l-0.3,0.7c-0.1,0.2-0.3,0.4-0.5,0.4h-1.5
				c-0.2,0-0.3-0.2-0.2-0.4l3.1-7.4c0.1-0.2,0.3-0.4,0.5-0.4h1.4c0.2,0,0.5,0.2,0.5,0.4l3.1,7.4c0.1,0.2,0,0.4-0.2,0.4H168z
				 M178.8,18.6c0,0.2-0.2,0.4-0.4,0.4h-1.6c-0.2,0-0.4-0.2-0.4-0.4v-3.8c0-0.2-0.1-0.2-0.2-0.1l-1.6,2.5c-0.1,0.2-0.2,0.3-0.2,0.3
				c0,0-0.1-0.1-0.2-0.3l-1.7-2.5c-0.1-0.2-0.2-0.2-0.2,0.1v3.8c0,0.2-0.2,0.4-0.4,0.4h-1.4c-0.2,0-0.4-0.2-0.4-0.4v-7.3
				c0-0.2,0.2-0.4,0.4-0.4h1.6c0.2,0,0.5,0.2,0.6,0.3l1.5,2.4c0.1,0.2,0.3,0.2,0.4,0l1.5-2.4c0.1-0.2,0.4-0.3,0.6-0.3h1.6
				c0.2,0,0.4,0.2,0.4,0.4V18.6z M192.1,19c-0.2,0-0.5-0.2-0.6-0.3l-1.1-1.8c-0.1-0.2-0.3-0.2-0.4,0l-1.1,1.8
				c-0.1,0.2-0.4,0.3-0.6,0.3h-1.7c-0.2,0-0.4,0-0.4,0s-0.2,0-0.4,0H180c-0.2,0-0.4-0.2-0.4-0.4v-7.3c0-0.2,0.2-0.4,0.4-0.4h5.7
				c0.2,0,0.4,0.2,0.4,0.4v1.2c0,0.2-0.2,0.4-0.4,0.4h-3.6c-0.2,0-0.4,0.2-0.4,0.4v0.4c0,0.2,0.2,0.4,0.4,0.4h3.2
				c0.2,0,0.4,0.2,0.4,0.4v1c0,0.2-0.2,0.4-0.4,0.4h-3.2c-0.2,0-0.4,0.2-0.4,0.4v0.6c0,0.2,0.2,0.4,0.4,0.4h3.6
				c0.2,0,0.4,0.2,0.4,0.4v1c0,0.2,0.1,0.2,0.2,0.1l2.3-3.5c0.1-0.2,0.1-0.5,0-0.7l-2.2-3.3c-0.1-0.2,0-0.3,0.2-0.3h1.8
				c0.2,0,0.5,0.2,0.6,0.3l1,1.6c0.1,0.2,0.3,0.2,0.4,0l1-1.6c0.1-0.2,0.4-0.3,0.6-0.3h1.7c0.2,0,0.3,0.1,0.2,0.3l-2.2,3.3
				c-0.1,0.2-0.1,0.5,0,0.7l2.3,3.5c0.1,0.2,0,0.3-0.2,0.3H192.1z M186.9,14.5c0-0.2,0.1-0.2,0.2-0.1l0.1,0.2c0.1,0.2,0.1,0.5,0,0.7
				l-0.1,0.2c-0.1,0.2-0.2,0.2-0.2-0.1V14.5z"/>
		</g>
	</g>
	<g>
		<path class="st2" d="M163.7,9.8L163.7,9.8C163.6,9.8,163.7,9.8,163.7,9.8L163.7,9.8z"/>
		<path class="st8" d="M194.7,20.1c-0.2,0-0.6,0-0.8,0h-1.8c-0.2,0-0.5,0-0.7,0c-0.2,0-0.4-0.1-0.5-0.3c-0.1-0.1-0.3-0.4-0.4-0.6
			l-0.1-0.2c-0.1-0.2-0.3-0.2-0.4,0l-0.1,0.2c-0.1,0.2-0.3,0.4-0.4,0.6c-0.1,0.1-0.3,0.3-0.5,0.3c-0.2,0-0.5,0-0.7,0h-0.5
			c-0.2,0-0.6,0-0.8,0h-0.4c-0.2,0-0.4,0-0.4,0c0,0-0.2,0-0.4,0h-1.4c-0.2,0-0.6,0-0.8,0h-3.2c-0.2,0-0.5,0-0.6,0s-0.3,0-0.6,0h-0.1
			c-0.2,0-0.5,0-0.6,0c-0.1,0-0.3,0-0.6,0h-1.1c-0.2,0-0.6,0-0.8,0h-0.5c-0.2,0-0.5-0.2-0.5-0.4v-0.4c0-0.2,0-0.5,0-0.7
			c0-0.2,0-0.2,0-0.1c0,0.1-0.2,0.2-0.3,0.2c-0.2,0-0.3,0-0.3,0c0,0-0.2,0-0.3,0s-0.4-0.1-0.5-0.2c-0.1-0.1-0.2-0.1-0.2,0.1
			s0,0.5,0,0.7v0.4c0,0.2-0.1,0.4-0.3,0.4h-0.3c-0.2,0-0.5,0-0.7,0c-0.2,0-0.5,0-0.7,0h-0.8c-0.2,0-0.4,0-0.5,0s-0.3,0-0.5,0h-0.2
			c-0.2,0-0.6,0-0.8,0H168c-0.2,0-0.6,0-0.8,0h0c-0.2,0-0.5-0.2-0.5-0.4c-0.1-0.2-0.2-0.5-0.3-0.7c-0.1-0.2-0.3-0.3-0.5-0.3h-0.7
			c-0.2,0-0.5,0.2-0.5,0.3c-0.1,0.2-0.2,0.5-0.3,0.7c-0.1,0.2-0.3,0.4-0.5,0.4h0c-0.2,0-0.6,0-0.8,0h-1.5c-0.2,0-0.6,0-0.8,0h-1
			c-0.2,0-0.3-0.2-0.2-0.4l0.4-0.9c0.1-0.2,0.2-0.5,0.3-0.7l3.1-7.4c0.1-0.2,0.2-0.5,0.3-0.7l0,0c0,0,0-0.1,0-0.1l-8.4,8.4V27
			c0,1.7,1.5,3,3.1,3h28.2l9.9-9.9c0,0-0.1,0-0.1,0H194.7z"/>
		<path class="st2" d="M196.3,19.8l-0.8-1.2c-0.1-0.2-0.3-0.5-0.4-0.7l-1.9-2.8c-0.1-0.2-0.1-0.5,0-0.7l1.8-2.6
			c0.1-0.2,0.3-0.5,0.4-0.7l0.8-1.2c0.1-0.2,0-0.3-0.2-0.3h-1.4c-0.2,0-0.6,0-0.8,0H192c-0.2,0-0.5,0-0.7,0c-0.2,0-0.4,0.1-0.5,0.3
			c-0.1,0.2-0.3,0.4-0.4,0.6l0,0c-0.1,0.2-0.3,0.2-0.4,0l0,0c-0.1-0.2-0.3-0.5-0.4-0.6c-0.1-0.2-0.3-0.3-0.5-0.3c-0.2,0-0.5,0-0.7,0
			h-0.8c-0.2,0-0.6,0-0.8,0h-0.2c-0.2,0-0.4,0-0.5,0c0,0-0.3,0-0.5,0h-1.3c-0.2,0-0.6,0-0.8,0h-3.3c-0.2,0-0.5,0-0.6,0s-0.3,0-0.6,0
			h-0.1c-0.2,0-0.5,0-0.6,0c-0.1,0-0.3,0-0.6,0h-1.2c-0.2,0-0.5,0-0.7,0c-0.2,0-0.4,0.1-0.5,0.3c-0.1,0.2-0.3,0.5-0.4,0.6l-0.5,0.8
			c-0.1,0.2-0.3,0.2-0.4,0l-0.5-0.8c-0.1-0.2-0.3-0.5-0.4-0.6s-0.3-0.3-0.5-0.3c-0.2,0-0.5,0-0.7,0h-1.6c-0.2,0-0.6,0-0.8,0h-0.5
			c-0.2,0-0.5,0.2-0.5,0.4v0.5c0,0.2,0,0.6,0,0.8v0.1l1.2,0.4v-0.5c0-0.2,0.3-0.4,0.5-0.4h1.6c0.2,0,0.5,0.2,0.6,0.3l1.1,1.8
			l1.1,0.3l1.3-2.1c0.1-0.2,0.4-0.3,0.6-0.3h1.6c0.2,0,0.3,0.2,0.3,0.4v3.3l0.8,0.2v-3.5c0-0.2,0.3-0.4,0.5-0.4h5.7
			c0.2,0,0.3,0.2,0.3,0.4v1.2c0,0.2-0.1,0.4-0.3,0.4h-3.6c-0.2,0-0.5,0.2-0.5,0.4v0.4c0,0.2,0.3,0.4,0.5,0.4h3.2
			c0.2,0,0.3,0.2,0.3,0.4v1c0,0.2-0.1,0.4-0.3,0.4h-2.4l4.4,1.4l1.3-2c0.1-0.2,0.1-0.5,0-0.7l-2.2-3.3c-0.1-0.2,0-0.3,0.2-0.3h1.8
			c0.2,0,0.5,0.2,0.6,0.3l1,1.6c0.1,0.2,0.3,0.2,0.4,0l1-1.6c0.1-0.2,0.4-0.3,0.6-0.3h1.7c0.2,0,0.3,0.2,0.2,0.3l-2.2,3.3
			c-0.1,0.2-0.1,0.5,0,0.7l2.3,3.5c0.1,0.2,0,0.3-0.2,0.3h-1l3.4,1.1l-0.1,0.1C196.3,20.1,196.4,20,196.3,19.8z M186.8,14.5
			c0-0.2,0.2-0.2,0.3-0.1l0.1,0.2c0.1,0.2,0.1,0.5,0,0.7l-0.2,0.2c-0.1,0.2-0.3,0.2-0.3-0.1V14.5z"/>
		<path class="st2" d="M167.7,10.8c-0.1-0.2-0.2-0.5-0.3-0.7c-0.1-0.2-0.3-0.4-0.5-0.4c-0.2,0-0.6,0-0.8,0h-1.4c-0.2,0-0.6,0-0.8,0
			c-0.1,0-0.2,0-0.3,0.1l4.2,1.3L167.7,10.8z"/>
		<path class="st2" d="M163.5,9.9l0.1-0.1C163.6,9.9,163.5,9.9,163.5,9.9z"/>
		<path class="st2" d="M190,16.9l-0.6,1l2.1,0.7l-1-1.6C190.3,16.7,190.1,16.7,190,16.9z"/>
	</g>
</g>
<g>
	<path class="st9" d="M96.7,27c0,1.7-1.3,3-3,3h-39c-1.7,0-3-1.3-3-3V3c0-1.7,1.3-3,3-3h39c1.7,0,3,1.3,3,3V27z"/>
	<g>
		<circle class="st10" cx="67.8" cy="15" r="9.7"/>
		<circle class="st11" cx="80.8" cy="15" r="9.7"/>
		<path class="st3" d="M71.2,15c0,2.8,1.2,5.4,3.2,7.2c1.9-1.8,3.2-4.3,3.2-7.2c0-2.8-1.2-5.4-3.2-7.2C72.4,9.6,71.2,12.2,71.2,15z"
			/>
	</g>
</g>
</svg>
