<svg id="Layer_1" data-name="Layer 1" xmlns="http://www.w3.org/2000/svg" viewBox="0 0 60 60"><defs><style>.cls-1{fill:#fff;}</style></defs><title>ico-ins</title><path class="cls-1" d="M27.23,9a1,1,0,0,1-1-1v-6a1,1,0,0,1,2.05,0V8A1,1,0,0,1,27.23,9Z"/><path class="cls-1" d="M18.65,17.61h-6a1,1,0,0,1,0-2.05h6a1,1,0,0,1,0,2.05Z"/><path class="cls-1" d="M41.91,17.61h-6a1,1,0,0,1,0-2.05h6a1,1,0,0,1,0,2.05Z"/><path class="cls-1" d="M33.33,11.58a1,1,0,0,1-.73-1.75l4.21-4.21a1,1,0,0,1,1.45,1.45l-4.21,4.21A1,1,0,0,1,33.33,11.58Z"/><path class="cls-1" d="M21.27,11.58a1,1,0,0,1-.73-.3L16.33,7.07a1,1,0,1,1,1.45-1.45L22,9.83a1,1,0,0,1-.73,1.75Z"/><path class="cls-1" d="M44.38,59a1,1,0,0,1-1-1V47.11a1,1,0,0,1,.3-.73l2-2a2.43,2.43,0,0,0,.72-1.73v-7.9a2,2,0,0,0-1.34-1.9L31.56,28.71a1,1,0,0,1-.72-.92l-.68-10.63a2.81,2.81,0,0,0-2.55-3,2.79,2.79,0,0,0-2.55,3v18a1,1,0,0,1-1.71.77L20.13,33,20,32.86a2,2,0,0,0-3,2.48l8.32,12.17a1,1,0,0,1,.18.58V58a1,1,0,0,1-2.05,0V48.41L15.35,36.57a3.91,3.91,0,0,1-.83-2.87,4,4,0,0,1,7-2.2L23,32.79V17.1a4.83,4.83,0,0,1,4.6-5,4.83,4.83,0,0,1,4.6,5L32.84,27l12.87,3.92a4.08,4.08,0,0,1,2.75,3.84v7.9a4.47,4.47,0,0,1-1.32,3.18L45.4,47.54V58A1,1,0,0,1,44.38,59Z"/></svg>