<svg id="Layer_1" data-name="Layer 1" xmlns="http://www.w3.org/2000/svg" viewBox="0 0 60 60"><defs><style>.cls-1{fill:#fff;}</style></defs><title>ico-addresss</title><path class="cls-1" d="M30.35,51.83h0a4.47,4.47,0,0,1-4-2.41c-4.54-8.52-10-20-10-26.52A13.79,13.79,0,0,1,30.33,9,13.48,13.48,0,0,1,44.27,22.91c0,6.69-5.4,18.13-9.92,26.54A4.47,4.47,0,0,1,30.35,51.83Zm0-40.81A11.62,11.62,0,0,0,18.45,22.91c0,6.37,6.09,18.75,9.71,25.56a2.45,2.45,0,0,0,2.19,1.32h0a2.44,2.44,0,0,0,2.18-1.31c3.62-6.72,9.68-19,9.68-25.57A11.49,11.49,0,0,0,30.33,11Z"/><path class="cls-1" d="M30.33,28.95a6.11,6.11,0,1,1,6.11-6.11A6.12,6.12,0,0,1,30.33,28.95Zm0-10.18a4.06,4.06,0,1,0,4.06,4.06A4.07,4.07,0,0,0,30.33,18.77Z"/></svg>