<svg id="Layer_1" data-name="Layer 1" xmlns="http://www.w3.org/2000/svg" viewBox="0 0 60 60"><defs><style>.cls-1{fill:#fff;}</style></defs><title>ico-faq</title><path class="cls-1" d="M30.13,50.62A20.88,20.88,0,1,1,51,29.74,20.9,20.9,0,0,1,30.13,50.62Zm0-39.7A18.82,18.82,0,1,0,48.95,29.74,18.84,18.84,0,0,0,30.13,10.92Z"/><path class="cls-1" d="M27.67,34.29v-.51c.06-1.69.22-2.1,2-3.15C32.47,29,34.22,27.42,34.22,25s-1.94-3.91-4.83-3.91S25,22.49,25,24.3v.48c0,.35-.13.54-.44.54H23.38a.53.53,0,0,1-.57-.38,4.8,4.8,0,0,1-.1-1c0-2.13,1.81-5.06,6.8-5.06,4,0,7.25,2.32,7.25,6,0,4.17-4.32,6.42-6,7.5A1.34,1.34,0,0,0,30,33.84v.51c0,.29-.19.41-.51.41H28.18A.44.44,0,0,1,27.67,34.29ZM26.94,40a1.89,1.89,0,0,1,1.88-1.91A1.92,1.92,0,0,1,30.76,40a1.9,1.9,0,0,1-1.94,1.91A1.87,1.87,0,0,1,26.94,40Z"/></svg>